<svg width="318" height="318" viewBox="0 0 318 318" fill="none" xmlns="http://www.w3.org/2000/svg">
    <path d="M274.1 35.5L174.6 109.4L193 65.8L274.1 35.5Z" fill="#E17726"/>
    <path d="M44.4 35.5L143.1 110.1L125.6 65.8L44.4 35.5Z" fill="#E27625"/>
    <path d="M238.3 206.8L211.8 247.4L268.5 263L284.8 207.7L238.3 206.8Z" fill="#E27625"/>
    <path d="M33.9 207.7L50.1 263L106.8 247.4L80.3 206.8L33.9 207.7Z" fill="#E27625"/>
    <path d="M103.6 138.2L87.8 162.1L144.1 164.6L142.1 104.1L103.6 138.2Z" fill="#E27625"/>
    <path d="M214.9 138.2L175.9 103.4L174.6 164.6L230.8 162.1L214.9 138.2Z" fill="#E27625"/>
    <path d="M106.8 247.4L140.6 230.9L111.4 208.1L106.8 247.4Z" fill="#E27625"/>
    <path d="M177.9 230.9L211.8 247.4L207.1 208.1L177.9 230.9Z" fill="#E27625"/>
    <path d="M211.8 247.4L177.9 230.9L180.6 253L180.3 262.3L211.8 247.4Z" fill="#D5BFB2"/>
    <path d="M106.8 247.4L138.3 262.3L138.1 253L140.6 230.9L106.8 247.4Z" fill="#D5BFB2"/>
    <path d="M138.8 193.5L110.6 185.2L130.5 176.1L138.8 193.5Z" fill="#233447"/>
    <path d="M179.7 193.5L188 176.1L208 185.2L179.7 193.5Z" fill="#233447"/>
    <path d="M106.8 247.4L111.6 206.8L80.3 207.7L106.8 247.4Z" fill="#CC6228"/>
    <path d="M206.9 206.8L211.8 247.4L238.3 207.7L206.9 206.8Z" fill="#CC6228"/>
    <path d="M230.8 162.1L174.6 164.6L179.8 193.5L188.1 176.1L208.1 185.2L230.8 162.1Z" fill="#CC6228"/>
    <path d="M110.6 185.2L130.6 176.1L138.8 193.5L144.1 164.6L87.8 162.1L110.6 185.2Z" fill="#CC6228"/>
    <path d="M87.8 162.1L111.4 208.1L110.6 185.2L87.8 162.1Z" fill="#E27525"/>
    <path d="M208.1 185.2L207.1 208.1L230.8 162.1L208.1 185.2Z" fill="#E27525"/>
    <path d="M144.1 164.6L138.8 193.5L145.4 227.6L146.9 182.7L144.1 164.6Z" fill="#E27525"/>
    <path d="M174.6 164.6L171.9 182.6L173.1 227.6L179.8 193.5L174.6 164.6Z" fill="#E27525"/>
    <path d="M179.8 193.5L173.1 227.6L177.9 230.9L207.1 208.1L208.1 185.2L179.8 193.5Z" fill="#F5841F"/>
    <path d="M110.6 185.2L111.4 208.1L140.6 230.9L145.4 227.6L138.8 193.5L110.6 185.2Z" fill="#F5841F"/>
    <path d="M180.3 262.3L180.6 253L178.1 250.8H140.4L138.1 253L138.3 262.3L106.8 247.4L117.6 256.4L140.1 271.9H178.4L200.9 256.4L211.8 247.4L180.3 262.3Z" fill="#C0AC9D"/>
    <path d="M177.9 230.9L173.1 227.6H145.4L140.6 230.9L138.1 253L140.4 250.8H178.1L180.6 253L177.9 230.9Z" fill="#161616"/>
    <path d="M278.3 114.2L286.8 73.4L274.1 35.5L177.9 106.9L214.9 138.2L267.2 153.5L278.8 140L273.8 136.4L281.8 129.1L275.6 124.3L283.6 118.2L278.3 114.2Z" fill="#763E1A"/>
    <path d="M31.8 73.4L40.3 114.2L34.9 118.2L42.9 124.3L36.7 129.1L44.7 136.4L39.7 140L51.3 153.5L103.6 138.2L140.6 106.9L44.4 35.5L31.8 73.4Z" fill="#763E1A"/>
    <path d="M267.2 153.5L214.9 138.2L230.8 162.1L207.1 208.1L238.3 207.7H284.8L267.2 153.5Z" fill="#F5841F"/>
    <path d="M103.6 138.2L51.3 153.5L33.9 207.7H80.3L111.4 208.1L87.8 162.1L103.6 138.2Z" fill="#F5841F"/>
    <path d="M174.6 164.6L177.9 106.9L193.1 65.8H125.6L140.6 106.9L144.1 164.6L145.3 182.8L145.4 227.6H173.1L173.3 182.8L174.6 164.6Z" fill="#F5841F"/>
</svg>
