<svg width="128" height="128" viewBox="0 0 128 128" fill="none" xmlns="http://www.w3.org/2000/svg">
    <rect width="128" height="128" rx="64" fill="black"/>
    <path d="M110.584 64.9142H99.142C99.142 41.7651 80.173 23 56.7724 23C33.6612 23 14.8716 41.3057 14.4118 64.0583C13.936 87.577 36.9544 107 60.7903 107H63.6655C84.8077 107 107.597 91.6233 110.354 71.0194C110.836 68.4396 110.584 64.9142 110.584 64.9142ZM39.7924 65.5223C39.7924 68.5811 37.2126 71.1609 34.1538 71.1609C31.0949 71.1609 28.5151 68.5811 28.5151 65.5223V56.2269C28.5151 53.1681 31.0949 50.5883 34.1538 50.5883C37.2126 50.5883 39.7924 53.1681 39.7924 56.2269V65.5223ZM61.5847 65.5223C61.5847 68.5811 59.0049 71.1609 55.9461 71.1609C52.8872 71.1609 50.3074 68.5811 50.3074 65.5223V56.2269C50.3074 53.1681 52.8872 50.5883 55.9461 50.5883C59.0049 50.5883 61.5847 53.1681 61.5847 56.2269V65.5223Z" fill="white"/>
</svg>
